HIERARCHY
ROOT Hips
{
	OFFSET 0.000000 0.000000 0.000000
	CHANNELS 6 Xposition Yposition Zposition Zrotation Yrotation Xrotation 
	JOINT LHipJoint
	{
		OFFSET 0.000000 0.000000 0.000000
		CHANNELS 3 Zrotation Yrotation Xrotation
		JOINT LeftUpLeg
		{
			OFFSET 1.363060 -1.794630 0.839290
			CHANNELS 3 Zrotation Yrotation Xrotation
			JOINT LeftLeg
			{
				OFFSET 2.448110 -6.726130 0.000000
				CHANNELS 3 Zrotation Yrotation Xrotation
				JOINT LeftFoot
				{
					OFFSET 2.562200 -7.039590 0.000000
					CHANNELS 3 Zrotation Yrotation Xrotation
					JOINT LeftToeBase
					{
						OFFSET 0.157640 -0.433110 2.322550
						CHANNELS 3 Zrotation Yrotation Xrotation
						End Site
						{
							OFFSET 0.000000 0.000000 0.000000
						}
					}
				}
			}
		}
	}
	JOINT RHipJoint
	{
		OFFSET 0.000000 0.000000 0.000000
		CHANNELS 3 Zrotation Yrotation Xrotation
		JOINT RightUpLeg
		{
			OFFSET -1.305520 -1.794630 0.839290
			CHANNELS 3 Zrotation Yrotation Xrotation
			JOINT RightLeg
			{
				OFFSET -2.542530 -6.985550 0.000000
				CHANNELS 3 Zrotation Yrotation Xrotation
				JOINT RightFoot
				{
					OFFSET -2.568260 -7.056230 0.000000
					CHANNELS 3 Zrotation Yrotation Xrotation
					JOINT RightToeBase
					{
						OFFSET -0.164730 -0.452590 2.363150
						CHANNELS 3 Zrotation Yrotation Xrotation
						End Site
						{
							OFFSET 0.000000 0.000000 0.000000
						}
					}
				}
			}
		}
	}
}
MOTION
Frames: 33
Frame Time: 0.008333
-2.904377 15.585167 -0.247881 -100.766789 83.837960 -75.509369 -8.634015 -1.523888 -1.725407 -22.012379 4.934856 -71.540790 -1.951102 4.065059 52.633460 3.059346 10.483299 -18.926866 178.173500 0.000000 -0.774200 10.567989 -2.938758 -5.807347 14.105563 -17.631179 -30.100444 1.568880 -5.146388 61.351268 0.876720 11.143229 -9.908420 -0.638400 -0.000001 -77.882300
-2.752151 15.568055 -0.270823 -100.193688 83.701569 -75.132186 -8.620417 -1.533844 -1.808464 -21.799450 5.142461 -71.382532 -1.833748 4.149302 53.983901 3.088537 10.603165 -19.547995 178.002899 -0.000000 -1.546900 10.729449 -2.927480 -5.776269 13.543163 -17.799454 -29.812086 1.394948 -5.179829 61.945985 0.936814 11.758799 -8.325320 -0.419300 -0.000000 -79.537201
-2.600734 15.553386 -0.295383 -99.919307 83.579909 -75.040442 -8.613873 -1.536105 -1.883724 -21.630596 5.328796 -71.133399 -1.738653 4.211992 55.153165 3.136416 10.766504 -20.279936 177.798500 0.000001 -1.935300 10.873074 -2.915045 -5.747489 13.000597 -17.958247 -29.580062 1.217960 -5.214081 62.563441 0.976674 12.304957 -6.719111 -0.149600 -0.000001 -80.841500
-2.450399 15.540912 -0.321993 -99.893192 83.464798 -75.186302 -8.617172 -1.536331 -1.950359 -21.478775 5.491409 -70.795512 -1.661946 4.254416 56.155192 3.200758 10.970646 -21.101855 177.562900 0.000000 -2.010900 10.997368 -2.902768 -5.722109 12.490348 -18.104879 -29.406417 1.036879 -5.250149 63.213211 0.996166 12.765569 -5.078084 0.169300 -0.000000 -81.817600
-2.301421 15.530314 -0.350907 -100.051804 83.348737 -75.508907 -8.632071 -1.539071 -2.008590 -21.321011 5.630825 -70.377093 -1.599273 4.279070 57.012876 3.277772 11.208362 -21.985838 177.301200 0.000001 -1.852700 11.102237 -2.890614 -5.700371 12.021934 -18.234307 -29.293391 0.850098 -5.288424 63.904560 0.995296 13.129150 -3.381636 0.536000 0.000000 -82.493100
-2.154121 15.521349 -0.382200 -100.328115 83.226402 -75.943154 -8.659254 -1.547221 -2.059396 -21.141015 5.749138 -69.890555 -1.546324 4.289275 57.754189 3.362702 11.469258 -22.900911 177.020700 0.000000 -1.549400 11.188635 -2.877327 -5.681565 11.601734 -18.339462 -29.243710 0.656323 -5.328569 64.644292 0.974055 13.390164 -1.606652 0.948600 -0.000000 -82.888200
-2.008751 15.513730 -0.415719 -100.663137 83.094853 -76.430434 -8.698239 -1.561949 -2.104233 -20.930219 5.849799 -69.352206 -1.499340 4.288842 58.408069 3.450461 11.741485 -23.816125 176.730000 0.000000 -1.189700 11.258418 -2.860864 -5.664307 11.232843 -18.412840 -29.259843 0.455099 -5.369633 65.436137 0.932333 13.549002 0.268889 1.404400 -0.000001 -83.006700
-1.865596 15.507344 -0.451169 -101.015912 82.953181 -76.929774 -8.747861 -1.583125 -2.144853 -20.687530 5.936812 -68.779795 -1.455384 4.281592 59.001443 3.536129 12.012563 -24.704149 176.438600 0.000000 -0.849600 11.313485 -2.839016 -5.646710 10.916830 -18.446515 -29.343799 0.247532 -5.410255 66.279699 0.870120 13.610411 2.257031 1.897200 0.000000 -82.825400
-1.724833 15.502090 -0.488091 -101.366853 82.803615 -77.420154 -8.805896 -1.608935 -2.183290 -20.419612 6.015105 -68.189485 -1.412810 4.270936 59.555399 3.615502 12.270714 -25.543405 176.155400 0.000000 -0.583000 11.356304 -2.809421 -5.626863 10.651957 -18.434717 -29.496840 0.036267 -5.448978 67.171032 0.787769 13.582007 4.357212 2.417301 0.000000 -82.299499
-1.586641 15.497962 -0.525960 -101.719269 82.648204 -77.903386 -8.870335 -1.637466 -2.221362 -20.136480 6.090356 -67.596909 -1.371037 4.259689 60.084549 3.685161 12.504440 -26.319085 175.888400 -0.000001 -0.414200 11.388336 -2.770937 -5.603010 10.437804 -18.372820 -29.718277 -0.174328 -5.484539 68.102240 0.686518 13.469846 6.546745 2.948400 0.000000 -81.361100
-1.451071 15.495062 -0.564106 -102.104114 82.496340 -78.409954 -8.937408 -1.664265 -2.261083 -19.857884 6.164511 -67.006975 -1.330924 4.249146 60.592403 3.743329 12.706413 -27.023648 175.643301 0.000000 -0.339199 11.412901 -2.721364 -5.575268 10.262054 -18.266224 -30.006387 -0.379326 -5.516698 69.064955 0.568866 13.282323 8.785630 3.469900 0.000000 -79.953400
-1.318175 15.493419 -0.602122 -102.556837 82.348348 -78.973477 -9.006052 -1.688195 -2.303460 -19.593082 6.243639 -66.428779 -1.293509 4.240377 61.079672 3.788902 12.869055 -27.657062 175.423899 -0.000000 -0.332000 11.429780 -2.662447 -5.542933 10.127257 -18.113878 -30.356834 -0.573499 -5.545553 70.047744 0.438816 13.014194 11.003100 3.950800 0.000001 -78.018800
-1.187865 15.493172 -0.639558 -103.128982 82.209704 -79.645680 -9.074372 -1.706610 -2.349326 -19.355935 6.329459 -65.860032 -1.260626 4.232970 61.538297 3.822202 12.989235 -28.224898 175.231100 -0.000000 -0.353800 11.440139 -2.595294 -5.507184 10.025478 -17.924065 -30.763860 -0.753079 -5.572419 71.040000 0.301576 12.656525 13.113725 4.356600 0.000000 -75.556900
-1.060059 15.494390 -0.676123 -103.870248 82.082725 -80.476588 -9.141735 -1.718504 -2.398773 -19.154081 6.422546 -65.297316 -1.234009 4.226048 61.958159 3.844367 13.066100 -28.737371 175.064001 0.000000 -0.359900 11.443926 -2.522520 -5.469514 9.953356 -17.703922 -31.220622 -0.916470 -5.599212 72.032366 0.162908 12.189562 15.018683 4.648800 -0.000000 -72.626200
-0.934599 15.497168 -0.711613 -104.831130 81.970606 -81.519224 -9.207333 -1.722602 -2.451620 -18.993881 6.520660 -64.730024 -1.215230 4.217914 62.326582 3.857303 13.102777 -29.206166 174.919300 0.000000 -0.314600 11.441900 -2.445718 -5.432639 9.902093 -17.467002 -31.720641 -1.064536 -5.628139 73.015979 0.027232 11.590010 16.638033 4.796300 -0.000000 -69.401200
-0.811295 15.501475 -0.746090 -106.043588 81.869783 -82.806136 -9.272843 -1.720345 -2.506954 -18.871177 6.622936 -64.152282 -1.205160 4.207394 62.634853 3.862515 13.101212 -29.642672 174.794400 -0.000000 -0.181500 11.432309 -2.368579 -5.397529 9.873707 -17.215163 -32.255957 -1.199694 -5.660897 73.983389 -0.101139 10.828996 17.877295 4.767899 0.000000 -66.050700
-0.689943 15.507275 -0.779739 -107.528718 81.776416 -84.359999 -9.339819 -1.713016 -2.563661 -18.780385 6.726024 -63.556121 -1.204066 4.193217 62.876084 3.861649 13.065902 -30.055840 -5.313700 -0.000000 -0.059000 11.413964 -2.293165 -5.365548 9.866614 -16.952525 -32.820246 -1.325442 -5.698595 74.928662 -0.220495 9.884465 18.678316 4.550900 0.000000 -62.795600
-0.570355 15.514489 -0.812667 -109.289941 81.686589 -86.186258 -9.409538 -1.701652 -2.620671 -18.714440 6.826216 -62.934224 -1.211654 4.174524 63.047535 3.855822 13.000885 -30.451006 -5.407200 0.000000 -0.413300 11.386233 -2.220450 -5.337393 9.878194 -16.680528 -33.407679 -1.445007 -5.741619 75.847089 -0.330681 8.746623 19.002681 4.149300 0.000001 -59.817200
-0.452321 15.523014 -0.845198 -111.307630 81.593102 -88.265748 -9.484126 -1.688182 -2.676628 -18.662221 6.920505 -62.285030 -1.226874 4.151269 63.151871 3.845535 12.909252 -30.829435 -5.486600 0.000000 -0.876300 11.347558 -2.151223 -5.312633 9.910021 -16.394737 -34.014527 -1.560539 -5.789452 76.734830 -0.432740 7.420369 18.831909 3.585700 0.000000 -57.206900
-0.335695 15.532724 -0.877567 -113.546319 81.489563 -90.563407 -9.564912 -1.673753 -2.730447 -18.614008 7.005943 -61.608782 -1.248206 4.123895 63.195727 3.830764 12.793610 -31.188003 -5.551400 -0.000000 -1.430500 11.297340 -2.085083 -5.290306 9.961532 -16.089834 -34.638086 -1.672597 -5.840985 77.587854 -0.528724 5.929082 18.171412 2.901200 -0.000000 -54.957000
-0.220303 15.543473 -0.910044 -115.950624 81.369666 -93.022408 -9.652902 -1.659292 -2.780944 -18.560833 7.080477 -60.911591 -1.273864 4.093548 63.189277 3.811011 12.655078 -31.520738 -5.599800 0.000000 -2.050300 11.235057 -2.021013 -5.268345 10.033464 -15.757843 -35.278780 -1.780006 -5.894378 78.400670 -0.621275 4.314099 17.052519 2.151399 0.000000 -52.981400
-0.106059 15.555192 -0.942749 -118.461477 81.229295 -95.582596 -9.747805 -1.644945 -2.827610 -18.496837 7.142326 -60.200322 -1.301953 4.061565 63.144643 3.785596 12.494681 -31.819931 -5.629800 0.000000 -2.706700 11.161560 -1.956977 -5.244446 10.123221 -15.391471 -35.937599 -1.880316 -5.947601 79.166896 -0.713334 2.629216 15.530240 1.398400 0.000001 -51.125200
0.007152 15.567786 -0.975788 -121.016706 81.065736 -98.179241 -9.848533 -1.630376 -2.870143 -18.419324 7.191372 -59.485235 -1.330723 4.029494 63.074393 3.753795 12.312957 -32.077041 -5.638700 0.000001 -3.372100 11.078287 -1.890693 -5.215397 10.227904 -14.983336 -36.617657 -1.970361 -5.998303 79.878462 -0.807592 0.936299 13.685002 0.701700 -0.000000 -49.231200
0.119335 15.581183 -1.009081 -123.565582 80.877047 -100.760286 -9.953492 -1.615472 -2.909142 -18.326455 7.228680 -58.775716 -1.358524 3.998798 62.991257 3.714661 12.109484 -32.283499 -5.624400 0.000000 -4.035700 10.987313 -1.820206 -5.178551 10.344323 -14.527927 -37.320380 -2.047247 -6.044537 80.528163 -0.905629 -0.704397 11.606225 0.108300 0.000000 -47.118401
0.230635 15.595402 -1.042585 -126.061393 80.663604 -103.275789 -10.060549 -1.599475 -2.945203 -18.220897 7.256868 -58.081744 -1.384501 3.970632 62.904036 3.667660 11.883419 -32.433951 -5.585300 -0.000000 -4.685500 10.890830 -1.743425 -5.130404 10.467468 -14.021280 -38.049719 -2.108744 -6.084095 81.105529 -1.007825 -2.236517 9.408420 -0.351800 -0.000001 -44.759500
0.341055 15.610386 -1.076119 -128.476512 80.426357 -105.697076 -10.167474 -1.581984 -2.979538 -18.105803 7.279558 -57.410503 -1.408079 3.945760 62.819364 3.612477 11.634383 -32.524742 -5.520800 0.000000 -5.330000 10.791188 -1.659217 -5.068595 10.592291 -13.463038 -38.806451 -2.153981 -6.115581 81.601823 -1.112257 -3.615074 7.196194 -0.670100 -0.000000 -42.163299
0.450726 15.626158 -1.109515 -130.795604 80.166190 -108.007752 -10.272373 -1.562691 -3.013556 -17.984800 7.301497 -56.765976 -1.429273 3.924496 62.740215 3.549052 11.361557 -32.555689 -5.431100 0.000000 -5.985400 10.690312 -1.567231 -4.991480 10.713587 -12.855925 -39.590240 -2.183091 -6.138075 82.007529 -1.214898 -4.805649 5.065211 -0.856000 0.000001 -39.434300
0.559683 15.642672 -1.142604 -133.013429 79.884426 -110.203374 -10.373712 -1.541388 -3.048708 -17.861854 7.327643 -56.148734 -1.448556 3.906707 62.665898 3.477747 11.064890 -32.529747 -5.318000 -0.000000 -6.674601 10.589660 -1.468042 -4.898469 10.826780 -12.205396 -40.397969 -2.196971 -6.151259 82.314212 -1.310048 -5.784155 3.089835 -0.931400 -0.000000 -36.725300
0.668072 15.659933 -1.175230 -135.131616 79.582088 -112.287034 -10.470550 -1.517999 -3.086338 -17.739792 7.362872 -55.555627 -1.466778 3.891891 62.592822 3.399203 10.744563 -32.452925 -5.183800 0.000000 -7.420800 10.490100 -1.362919 -4.789967 10.927646 -11.518936 -41.224533 -2.196590 -6.155320 82.514159 -1.391286 -6.535650 1.317707 -0.923999 0.000000 -34.197300
0.776008 15.677870 -1.207265 -137.157193 79.260950 -114.267932 -10.562278 -1.492315 -3.127319 -17.621402 7.410577 -54.981089 -1.485109 3.879260 62.515230 3.314602 10.401912 -32.335101 -5.032300 -0.000000 -8.229200 10.392064 -1.253449 -4.667184 11.012217 -10.805669 -42.064131 -2.182672 -6.150905 82.601786 -1.452461 -7.052405 -0.231112 -0.861001 0.000000 -31.993000
0.883537 15.696348 -1.238725 -139.091997 78.918413 -116.150736 -10.649533 -1.465330 -3.172394 -17.503633 7.473887 -54.419350 -1.503984 3.868092 62.428148 3.224543 10.038622 -32.180197 -4.865800 0.000000 -9.161800 10.294878 -1.142125 -4.531717 11.081975 -10.070615 -42.908400 -2.155261 -6.138635 82.572549 -1.489038 -7.336518 -1.563729 -0.765500 0.000000 -30.186000
0.990935 15.715335 -1.269594 -140.946357 78.558283 -117.947416 -10.732034 -1.436178 -3.221309 -17.389937 7.552663 -53.861852 -1.525123 3.857285 62.324007 3.131170 9.657538 -32.006444 -4.690100 -0.000000 -10.150000 10.198501 -1.030000 -4.385429 11.131639 -9.324466 -43.753208 -2.114244 -6.119560 82.425037 -1.498263 -7.395598 -2.699011 -0.654699 0.000000 -28.853700
1.098210 15.734636 -1.299959 -142.719280 78.178335 -119.659186 -10.810824 -1.405967 -3.273753 -17.275329 7.646437 -53.304033 -1.548542 3.846201 62.199352 3.035083 9.261124 -31.816550 -4.507300 -0.000000 -11.243600 10.101721 -0.918866 -4.229817 11.164492 -8.569344 -44.593048 -2.059250 -6.094301 82.159500 -1.480278 -7.249855 -3.669484 -0.540500 0.000000 -27.994400
